<svg width="180" height="180" viewBox="0 0 180 180" fill="none" xmlns="http://www.w3.org/2000/svg">
  <!-- Background -->
  <rect width="180" height="180" rx="37" fill="#080808"/>
  
  <!-- Folder shape -->
  <g transform="translate(25, 35)">
    <!-- Folder back tab -->
    <path d="M8 5 L45 5 L55 18 L122 18 C126 18 130 22 130 26 L130 100 C130 104 126 108 122 108 L8 108 C4 108 0 104 0 100 L0 13 C0 9 4 5 8 5 Z" 
          fill="#484848"/>
    
    <!-- Folder front -->
    <path d="M8 28 L122 28 C126 28 130 32 130 36 L130 100 C130 104 126 108 122 108 L8 108 C4 108 0 104 0 100 L0 36 C0 32 4 28 8 28 Z" 
          fill="#282828"/>
    
    <!-- Magnifying glass -->
    <g transform="translate(35, 45)">
      <circle cx="28" cy="28" r="22" fill="none" stroke="#686868" stroke-width="5"/>
      <line x1="44" y1="44" x2="60" y2="60" stroke="#686868" stroke-width="6" stroke-linecap="round"/>
    </g>
  </g>
</svg>
