<svg xmlns="http://www.w3.org/2000/svg" width="215" height="48" fill="none">
  <defs>
    <linearGradient id="logoGradient" x1="0%" y1="0%" x2="100%" y2="100%">
      <stop offset="0%" style="stop-color:#2563EB"/>
      <stop offset="100%" style="stop-color:#7C3AED"/>
    </linearGradient>
  </defs>
  
  <!-- Icon mark - folder with compass -->
  <g transform="translate(0, 4)">
    <!-- Folder outline -->
    <path d="M2 12 C2 7 6 3 11 3 L18 3 L22 8 L35 8 C40 8 44 12 44 17 L44 35 C44 40 40 44 35 44 L11 44 C6 44 2 40 2 35 Z" 
          fill="none" stroke="url(#logoGradient)" stroke-width="2.5"/>
    
    <!-- Compass/explore circle -->
    <circle cx="23" cy="26" r="10" fill="none" stroke="url(#logoGradient)" stroke-width="2"/>
    
    <!-- Compass needle -->
    <path d="M23 18 L26 26 L23 34 L20 26 Z" fill="url(#logoGradient)"/>
    <path d="M15 26 L23 23 L31 26 L23 29 Z" fill="url(#logoGradient)" opacity="0.6"/>
  </g>
  
  <!-- Text: Projects Explorer -->
  <text x="54" y="32" font-family="system-ui, -apple-system, sans-serif" font-size="18" font-weight="600" fill="#1F2937">
    Projects Explorer
  </text>
</svg>
