<svg xmlns="http://www.w3.org/2000/svg" width="215" height="48" fill="none">
  <!-- Icon mark - folder with compass -->
  <g transform="translate(4, 4)">
    <!-- Folder outline -->
    <path d="M2 8 L12 8 L15 12 L36 12 C38 12 40 14 40 16 L40 36 C40 38 38 40 36 40 L2 40 C0 40 0 38 0 36 L0 10 C0 8 0 8 2 8 Z" 
          fill="#080808"/>
    
    <!-- Compass diamond -->
    <path d="M20 18 L28 26 L20 34 L12 26 Z" fill="none" stroke="#282828" stroke-width="2"/>
    
    <!-- Compass needle -->
    <path d="M20 20 L22 26 L20 32 L18 26 Z" fill="#282828"/>
  </g>
  
  <!-- Text: Projects Explorer -->
  <text x="52" y="30" font-family="system-ui, -apple-system, sans-serif" font-size="17" font-weight="600" fill="#484848" dominant-baseline="middle">
    Projects Explorer
  </text>
</svg>
